HIERARCHY
ROOT Hips
{
	OFFSET 0.000000 0.000000 0.000000 
	CHANNELS 6 Xposition Yposition Zposition Zrotation Yrotation Xrotation
	JOINT LHipJoint
	{
		OFFSET 0.000000 0.000000 0.000000 
		CHANNELS 3 Zrotation Yrotation Xrotation
		JOINT LeftUpLeg
		{
			OFFSET 0.042997 -0.055748 0.027915 
			CHANNELS 3 Zrotation Yrotation Xrotation
			JOINT LeftLeg
			{
				OFFSET 0.077477 -0.212868 0.000000 
				CHANNELS 3 Zrotation Yrotation Xrotation
				JOINT LeftFoot
				{
					OFFSET 0.082295 -0.226105 0.000000 
					CHANNELS 3 Zrotation Yrotation Xrotation
					JOINT LeftToeBase
					{
						OFFSET 0.007481 -0.020552 0.070941 
						CHANNELS 3 Zrotation Yrotation Xrotation
						End Site
						{
							OFFSET 0.000000 -0.000000 0.036988 
						}
					}
				}
			}
		}
	}
	JOINT RHipJoint
	{
		OFFSET 0.000000 0.000000 0.000000 
		CHANNELS 3 Zrotation Yrotation Xrotation
		JOINT RightUpLeg
		{
			OFFSET -0.041755 -0.055748 0.027915 
			CHANNELS 3 Zrotation Yrotation Xrotation
			JOINT RightLeg
			{
				OFFSET -0.080288 -0.220590 0.000000 
				CHANNELS 3 Zrotation Yrotation Xrotation
				JOINT RightFoot
				{
					OFFSET -0.080178 -0.220286 0.000000 
					CHANNELS 3 Zrotation Yrotation Xrotation
					JOINT RightToeBase
					{
						OFFSET -0.008604 -0.023639 0.068158 
						CHANNELS 3 Zrotation Yrotation Xrotation
						End Site
						{
							OFFSET -0.000000 -0.000000 0.036010 
						}
					}
				}
			}
		}
	}
	JOINT LowerBack
	{
		OFFSET 0.000000 0.000000 0.000000 
		CHANNELS 3 Zrotation Yrotation Xrotation
		JOINT Spine
		{
			OFFSET 0.001934 0.067235 -0.000292 
			CHANNELS 3 Zrotation Yrotation Xrotation
			JOINT Spine1
			{
				OFFSET 0.001979 0.067291 0.000273 
				CHANNELS 3 Zrotation Yrotation Xrotation
				JOINT Neck
				{
					OFFSET 0.000000 0.000000 0.000000 
					CHANNELS 3 Zrotation Yrotation Xrotation
					JOINT Neck1
					{
						OFFSET -0.001313 0.052159 0.007351 
						CHANNELS 3 Zrotation Yrotation Xrotation
						JOINT Head
						{
							OFFSET 0.002347 0.052924 -0.007637 
							CHANNELS 3 Zrotation Yrotation Xrotation
							End Site
							{
								OFFSET 0.000799 0.053662 -0.003437 
							}
						}
					}
				}
				JOINT LeftShoulder
				{
					OFFSET 0.000000 0.000000 0.000000 
					CHANNELS 3 Zrotation Yrotation Xrotation
					JOINT LeftArm
					{
						OFFSET 0.114740 0.039471 -0.012919 
						CHANNELS 3 Zrotation Yrotation Xrotation
						JOINT LeftForeArm
						{
							OFFSET 0.146409 -0.000000 -0.000000 
							CHANNELS 3 Zrotation Yrotation Xrotation
							JOINT LeftHand
							{
								OFFSET 0.106133 -0.000000 -0.000000 
								CHANNELS 3 Zrotation Yrotation Xrotation
								JOINT LeftFingerBase
								{
									OFFSET 0.000000 0.000000 0.000000 
									CHANNELS 3 Zrotation Yrotation Xrotation
									JOINT LeftHandIndex1
									{
										OFFSET 0.015190 -0.000000 -0.000000 
										CHANNELS 3 Zrotation Yrotation Xrotation
										End Site
										{
											OFFSET 0.012247 -0.000000 -0.000000 
										}
									}
								}
								JOINT LThumb
								{
									OFFSET 0.000000 0.000000 0.000000 
									CHANNELS 3 Zrotation Yrotation Xrotation
									End Site
									{
										OFFSET 0.012433 -0.000000 0.012433 
									}
								}
							}
						}
					}
				}
				JOINT RightShoulder
				{
					OFFSET 0.000000 0.000000 0.000000 
					CHANNELS 3 Zrotation Yrotation Xrotation
					JOINT RightArm
					{
						OFFSET -0.095042 0.044685 -0.023872 
						CHANNELS 3 Zrotation Yrotation Xrotation
						JOINT RightForeArm
						{
							OFFSET -0.173617 -0.000000 -0.000000 
							CHANNELS 3 Zrotation Yrotation Xrotation
							JOINT RightHand
							{
								OFFSET -0.103992 -0.000000 -0.000000 
								CHANNELS 3 Zrotation Yrotation Xrotation
								JOINT RightFingerBase
								{
									OFFSET 0.000000 0.000000 0.000000 
									CHANNELS 3 Zrotation Yrotation Xrotation
									JOINT RightHandIndex1
									{
										OFFSET -0.015863 -0.000000 -0.000000 
										CHANNELS 3 Zrotation Yrotation Xrotation
										End Site
										{
											OFFSET -0.012789 -0.000000 -0.000000 
										}
									}
								}
								JOINT RThumb
								{
									OFFSET 0.000000 0.000000 0.000000 
									CHANNELS 3 Zrotation Yrotation Xrotation
									End Site
									{
										OFFSET -0.012985 -0.000000 0.012985 
									}
								}
							}
						}
					}
				}
			}
		}
	}
}
MOTION
Frames: 11
Frame Time: 0.008333
0.000894 0.556996 -0.006484 0.000000 0.000000 0.000000 0.000000 0.000000 0.000000 -12.138233 -5.706572 -6.250375 0.265267 3.312698 9.150558 0.234412 0.000020 -9.658536 0.058447 1.552711 4.271250 0.000000 0.000000 0.000000 26.441254 6.158378 -10.076208 -0.659964 -5.171080 14.402596 0.114797 -10.259078 -12.711878 -0.527195 -4.624916 12.846663 3.976552 -1.491283 -4.823347 3.523969 -2.275516 -3.212258 1.306183 -1.224956 -0.615255 -8.932219 -6.637100 -16.787106 6.629381 -8.290544 14.897467 2.616006 -3.875515 8.144115 0.000000 0.000000 0.000000 -92.105705 1.324739 29.313210 26.241051 -34.385231 -10.305172 0.000000 0.000000 7.300816 10.361969 27.939312 4.510486 -7.125000 0.000000 0.000000 -23.254520 56.599476 -8.134644 0.000000 0.000000 0.000000 84.339279 2.957914 20.539053 -25.113531 32.556393 -9.986995 0.000000 0.000000 -10.175859 9.343781 -32.079166 -5.652589 7.125000 0.000000 0.000000 44.004311 -56.112442 -14.506262 
0.000782 0.556875 -0.006315 0.000000 0.000000 0.000000 0.000000 0.000000 0.000000 -12.178116 -5.774644 -6.388850 0.264884 3.310147 9.143665 0.237625 0.073091 -9.690823 0.052094 1.473072 4.051400 0.000000 0.000000 0.000000 26.428907 6.421656 -9.906165 -0.619778 -5.028309 13.991541 0.145094 -10.571557 -12.699556 -0.536241 -4.670631 12.975325 4.047353 -1.420916 -5.276294 3.445938 -2.216431 -3.147666 1.179816 -1.191412 -0.299059 -10.388737 -6.300500 -17.738958 9.078062 -7.865588 15.948132 3.691712 -3.502231 8.722331 0.000000 0.000000 0.000000 -92.136215 0.915828 28.274872 25.696800 -33.791061 -10.009344 0.000000 0.000000 8.690079 10.381237 27.832024 4.518522 -7.125000 0.000000 0.000000 -23.121391 56.515949 -8.003088 0.000000 0.000000 0.000000 84.355255 3.727978 20.052055 -24.556662 31.939182 -9.691340 0.000000 0.000000 -8.969019 8.504962 -31.237831 -5.234428 7.125000 0.000000 0.000000 42.555565 -55.573235 -13.573825 
0.000666 0.556894 -0.006192 0.000000 0.000000 0.000000 0.000000 0.000000 0.000000 -12.164898 -5.747716 -6.368025 0.261902 3.291895 9.092473 0.243938 0.154061 -9.781608 0.051941 1.471133 4.046050 0.000000 0.000000 0.000000 26.500858 6.767034 -9.587523 -0.584092 -4.897239 13.614886 0.173391 -10.872835 -12.712733 -0.550686 -4.741647 13.175587 4.200155 -1.266948 -5.418740 3.279506 -2.029447 -2.930773 0.927848 -1.090369 -0.001364 -10.118356 -6.368400 -18.736513 9.083044 -7.979231 16.235697 3.630019 -3.517447 8.980846 0.000000 0.000000 0.000000 -91.955711 0.113917 27.616632 25.086050 -33.098495 -9.690016 0.000000 0.000000 9.773544 10.499806 27.767239 4.573458 -7.125000 0.000000 0.000000 -22.911661 56.490425 -7.881931 0.000000 0.000000 0.000000 84.545746 4.645143 20.283257 -24.173492 31.590471 -9.448186 0.000000 0.000000 -8.554379 7.884443 -31.138397 -4.899568 7.125000 0.000000 0.000000 41.892426 -55.625027 -13.359488 
0.000532 0.556933 -0.006042 0.000000 0.000000 0.000000 0.000000 0.000000 0.000000 -12.112782 -5.743687 -6.341100 0.258719 3.271544 9.035781 0.251050 0.331031 -9.899394 0.046287 1.396794 3.841100 0.000000 0.000000 0.000000 26.610212 6.989213 -9.359581 -0.554906 -4.787069 13.299232 0.198787 -11.071213 -12.591212 -0.556131 -4.768363 13.250751 4.346056 -1.209881 -5.230787 3.227375 -1.935663 -3.252881 0.803181 -1.056025 -0.440869 -10.056274 -6.249000 -18.342867 9.084325 -7.860675 16.369062 3.641625 -3.463862 8.943663 0.000000 0.000000 0.000000 -91.990524 0.429106 26.580994 24.573700 -32.550323 -9.406387 0.000000 0.000000 10.934008 10.598775 27.228951 4.515994 -7.125000 0.000000 0.000000 -22.519032 55.998802 -7.553775 0.000000 0.000000 0.000000 84.591324 4.499806 20.993259 -23.828125 31.299961 -9.216831 0.000000 0.000000 -8.334438 7.445825 -30.682764 -4.665806 7.125000 0.000000 0.000000 41.135582 -55.333019 -12.858549 
0.000436 0.557024 -0.005879 0.000000 0.000000 0.000000 0.000000 0.000000 0.000000 -12.070564 -5.794660 -6.312075 0.256636 3.258192 8.998488 0.256563 0.507901 -9.997279 0.048334 1.424155 3.916550 0.000000 0.000000 0.000000 26.706966 7.228191 -9.178840 -0.533620 -4.704099 13.061877 0.215884 -11.234491 -12.562990 -0.557477 -4.775878 13.271913 4.533458 -1.071414 -5.699834 3.107444 -1.803378 -2.855289 0.571714 -0.974081 0.226826 -9.785694 -6.295800 -19.244022 9.033806 -7.927419 16.386728 3.566231 -3.464478 9.093278 0.000000 0.000000 0.000000 -91.904030 -0.667305 25.627655 23.933350 -31.812157 -9.077960 0.000000 0.000000 12.116369 10.838444 26.747663 4.523630 -7.125000 0.000000 0.000000 -22.018101 55.585476 -7.241019 0.000000 0.000000 0.000000 84.723701 5.684871 21.040657 -23.420757 30.913454 -8.966676 0.000000 0.000000 -7.864797 7.299307 -30.223127 -4.569145 7.125000 0.000000 0.000000 40.659538 -54.980209 -12.402712 
0.000333 0.557134 -0.005769 0.000000 0.000000 0.000000 0.000000 0.000000 0.000000 -11.947547 -5.870131 -6.241450 0.253353 3.237241 8.940097 0.265975 0.694272 -10.174366 0.062381 1.603216 4.410400 0.000000 0.000000 0.000000 26.842220 7.358969 -9.036797 -0.511034 -4.614128 12.805222 0.222581 -11.258669 -12.464469 -0.566122 -4.816894 13.387575 4.672059 -0.989247 -5.897881 3.100013 -1.714594 -2.938297 0.489747 -0.932437 0.250722 -9.763813 -6.183500 -18.710379 9.026288 -7.787863 16.118595 3.583437 -3.410094 8.899894 0.000000 0.000000 0.000000 -91.998238 -0.694816 24.673817 23.429001 -31.274788 -8.797731 0.000000 0.000000 13.089836 11.059412 26.899376 4.666366 -7.125000 0.000000 0.000000 -21.798771 55.788452 -7.202163 0.000000 0.000000 0.000000 84.721687 5.862035 21.564461 -23.079187 30.628044 -8.737021 0.000000 0.000000 -7.742756 7.159488 -29.841194 -4.470484 7.125000 0.000000 0.000000 40.249496 -54.693802 -12.016375 
0.000202 0.557273 -0.005618 0.000000 0.000000 0.000000 0.000000 0.000000 0.000000 -11.940929 -5.832403 -6.205125 0.248970 3.208889 8.861005 0.268088 0.902942 -10.233952 0.056728 1.533077 4.216850 0.000000 0.000000 0.000000 26.880173 7.478847 -8.912354 -0.494048 -4.544758 12.607667 0.226578 -11.244347 -12.342446 -0.583967 -4.898209 13.617537 4.767761 -0.884180 -6.147428 3.054281 -1.599609 -2.888205 0.392580 -0.871794 0.441617 -9.677531 -6.120900 -18.712532 9.029769 -7.715306 16.046659 3.581544 -3.369609 8.864809 0.000000 0.000000 0.000000 -92.084244 -0.980927 23.861076 22.941349 -30.762119 -8.523503 0.000000 0.000000 13.951601 11.341681 26.865088 4.791702 -7.125000 0.000000 0.000000 -21.443441 55.819725 -7.077306 0.000000 0.000000 0.000000 84.762375 6.275699 22.099161 -22.722218 30.318535 -8.502967 0.000000 0.000000 -7.405416 6.682969 -29.304859 -4.221924 7.125000 0.000000 0.000000 39.414555 -54.336697 -11.456038 
0.000124 0.557414 -0.005524 0.000000 0.000000 0.000000 0.000000 0.000000 0.000000 -11.856012 -5.786275 -6.194200 0.246487 3.192738 8.815912 0.269700 1.097813 -10.292337 0.055875 1.522338 4.187500 0.000000 0.000000 0.000000 26.977024 7.579025 -8.861013 -0.485862 -4.510387 12.509912 0.225275 -11.165525 -12.197325 -0.585612 -4.906325 13.640501 4.930463 -0.813613 -6.755775 3.027750 -1.568925 -2.714113 0.268813 -0.845850 0.957512 -9.664949 -5.980300 -18.222486 9.117550 -7.539450 15.610725 3.635150 -3.290325 8.624325 0.000000 0.000000 0.000000 -92.188248 -1.340937 22.837339 22.466600 -30.268749 -8.253775 0.000000 0.000000 14.846165 11.544650 26.711102 4.859838 -7.125000 0.000000 0.000000 -21.113913 55.721001 -6.907650 0.000000 0.000000 0.000000 84.817352 6.791463 22.840263 -22.420448 30.092924 -8.286713 0.000000 0.000000 -7.562075 6.254350 -29.296225 -3.976663 7.125000 0.000000 0.000000 38.999512 -54.428787 -11.350599 
0.000074 0.557559 -0.005380 0.000000 0.000000 0.000000 0.000000 0.000000 0.000000 -11.841895 -5.751747 -6.202975 0.243305 3.172186 8.758620 0.265812 1.437083 -10.300724 0.046922 1.404198 3.861650 0.000000 0.000000 0.000000 26.992977 7.605803 -8.885470 -0.484477 -4.503717 12.490958 0.212472 -11.007403 -12.131503 -0.573958 -4.854341 13.493263 5.030764 -0.685845 -6.888822 2.980119 -1.417841 -2.603120 0.172445 -0.765006 1.148108 -9.532469 -5.985900 -18.724442 9.088632 -7.547594 15.735891 3.601356 -3.275741 8.741940 0.000000 0.000000 0.000000 -92.294151 -1.835748 21.969999 21.974550 -29.749279 -7.978147 0.000000 0.000000 15.665428 11.537819 26.477114 4.829073 -7.125000 0.000000 0.000000 -20.952883 55.509377 -6.724093 0.000000 0.000000 0.000000 84.858032 7.348927 23.117865 -22.149881 29.913918 -8.081258 0.000000 0.000000 -7.398734 6.505131 -28.961391 -4.050402 7.125000 0.000000 0.000000 38.996769 -54.110981 -11.056063 
0.000034 0.557669 -0.005282 0.000000 0.000000 0.000000 0.000000 0.000000 0.000000 -11.778478 -5.790519 -6.199150 0.243922 3.176334 8.770128 0.274525 1.500953 -10.467509 0.046469 1.398359 3.845500 0.000000 0.000000 0.000000 27.037331 7.664381 -8.907529 -0.484091 -4.500847 12.483104 0.205269 -10.871181 -11.999882 -0.583003 -4.895156 13.608726 4.314266 -0.545978 -6.358768 3.543288 -1.158856 -2.943628 1.175178 -0.655362 0.521303 -9.857887 -6.075800 -18.986496 8.641413 -7.493638 16.143856 3.513663 -3.294456 8.906157 0.000000 0.000000 0.000000 -93.433464 -1.664259 21.220459 21.553001 -29.335114 -7.726819 0.000000 0.000000 16.571493 11.753087 26.401726 4.920209 -7.125000 0.000000 0.000000 -20.644953 55.489750 -6.587438 0.000000 0.000000 0.000000 83.909409 7.097191 23.643467 -22.011312 29.933207 -7.920403 0.000000 0.000000 -7.837594 6.684412 -28.512457 -4.089641 7.125000 0.000000 0.000000 38.845730 -53.709469 -10.650524 
-0.000038 0.557776 -0.005188 0.000000 0.000000 0.000000 0.000000 0.000000 0.000000 -11.829961 -5.815491 -6.107925 0.242139 3.164683 8.737836 0.279738 1.620823 -10.591596 0.053916 1.498520 4.121750 0.000000 0.000000 0.000000 26.984884 7.678559 -8.909686 -0.486405 -4.509577 12.508348 0.188566 -10.690160 -11.982059 -0.594348 -4.945672 13.751887 5.134367 -0.461511 -6.747016 2.897956 -1.107572 -2.733836 0.052211 -0.616719 0.940798 -9.280406 -5.911500 -19.133551 9.005894 -7.478181 15.982422 3.543369 -3.222072 8.869872 0.000000 0.000000 0.000000 -92.580070 -2.058270 20.690521 21.179550 -28.992544 -7.492090 0.000000 0.000000 16.548557 12.040456 26.109337 4.989346 -7.125000 0.000000 0.000000 -20.174725 55.269524 -6.348782 0.000000 0.000000 0.000000 84.999191 7.661355 23.909668 -21.837543 29.895897 -7.750248 0.000000 0.000000 -7.601353 6.711094 -28.400822 -4.051179 7.125000 0.000000 0.000000 38.784687 -53.629063 -10.509687 
